<svg fill="#FFFFF0" width="52" height="52" viewBox="0 0 64 64" xmlns="http://www.w3.org/2000/svg">
<path d="M58.4 13H5.5C3.1 13 1 15 1 17.5V46.6C1 48.9 3 51 5.5 51H58.5C60.9 51 63 49 63 46.5V17.3C62.9 14.9 60.9 13 58.4 13ZM59.9 46.6C59.9 47.4 59.2 48.1 58.4 48.1H5.5C4.7 48.1 4 47.4 4 46.6V17.3C4 16.5 4.7 15.8 5.5 15.8H58.5C59.3 15.8 60 16.5 60 17.3V46.5H59.9V46.6Z"/><path d="M50.1016 21.7998H44.2016V32.1998H38.1016L47.1016 42.0998L56.0016 32.1998H50.1016V21.7998Z"/><path d="M21.7984 29.2998L15.8984 21.7998H9.89844V42.0998H15.8984V30.3998L21.7984 37.7998L27.6984 30.3998V42.0998H33.7984V21.7998H27.6984L21.7984 29.2998Z"/></svg>