<svg fill="#FFFFF0" width="52" height="52" viewBox="0 0 64 64" xmlns="http://www.w3.org/2000/svg">
<path d="M32 17.4002C48.6 17.4002 61.3 24.3002 61.3 32.1002C61.3 39.9002 48.6 46.9002 32 46.9002C15.4 46.9002 2.7 39.9002 2.7 32.1002C2.7 24.3002 15.4 17.4002 32 17.4002ZM32 15.7002C14.8 15.7002 1 23.0002 1 32.0002C1 41.0002 14.8 48.2002 32 48.2002C49.2 48.2002 63 41.0002 63 32.0002C63 23.0002 49.2 15.7002 32 15.7002ZM22.1 30.8002C21.4 34.7002 18.6 34.3002 15.3 34.3002L16.7 27.4002C20.4 27.4002 22.8 27.0002 22.1 30.8002ZM10.4 41.2002H14L14.8 36.8002C18.7 36.8002 21.3 37.1002 23.5 35.0002C26 32.6002 26.7 28.5002 24.9 26.5002C23.9 25.4002 22.5 24.8002 20.4 24.8002H13.5L10.4 41.2002ZM28.5 20.5002H32L31.2 24.9002C34.2 24.9002 37.1 24.8002 38.5 26.0002C39.9 27.4002 39.2 29.0002 37.8 37.0002H34.1C35.5 29.4002 35.8 28.7002 35.4 28.1002C35 27.5002 33.4 27.5002 30.6 27.5002L28.8 37.0002H25.3L28.5 20.5002ZM49.9 30.8002C49.2 34.7002 46.4 34.3002 43.1 34.3002L44.5 27.4002C48.2 27.4002 50.6 27.0002 49.9 30.8002ZM38.2 41.2002H41.7L42.5 37.0002C46.7 37.0002 49 37.3002 51.2 35.2002C53.7 32.8002 54.4 28.7002 52.6 26.7002C51.6 25.6002 50.2 25.0002 48.1 25.0002H41.2L38.2 41.2002Z"/>
</svg>